<svg width="22" height="8" viewBox="0 0 22 8" fill="none" xmlns="http://www.w3.org/2000/svg">
<path d="M11.3651 2.27356C11.3529 3.26416 12.2204 3.81693 12.8738 4.14561C13.5451 4.48281 13.7706 4.69907 13.7679 5.00065C13.7629 5.46215 13.2324 5.66585 12.736 5.67376C11.8699 5.68761 11.3664 5.43239 10.966 5.23936L10.654 6.74634C11.0557 6.9374 11.7994 7.10402 12.5707 7.11133C14.3811 7.11133 15.5655 6.18885 15.5719 4.75859C15.579 2.9434 13.1396 2.84292 13.1563 2.03158C13.162 1.78556 13.3894 1.52303 13.8878 1.45628C14.1344 1.42256 14.8154 1.39675 15.5874 1.76371L15.8904 0.305674C15.4752 0.149633 14.9416 0.000216484 14.2773 0.000216484C12.5733 0.000216484 11.3748 0.935255 11.3651 2.27356ZM18.8019 0.125806C18.4713 0.125806 18.1927 0.324856 18.0684 0.630313L15.4823 7.00423H17.2914L17.6514 5.97724H19.862L20.0709 7.00423H21.6654L20.2739 0.125806H18.8019ZM19.0549 1.98393L19.577 4.56685H18.1472L19.0549 1.98393ZM9.1717 0.125892L7.7457 7.00415H9.46961L10.8949 0.12572H9.1717M6.62145 0.12572L4.82712 4.80754L4.10128 0.826784C4.01611 0.382404 3.67978 0.125806 3.30628 0.125806H0.373115L0.332031 0.325544C0.934198 0.460424 1.61836 0.677969 2.03286 0.910739C2.28653 1.05293 2.35886 1.17723 2.4422 1.51512L3.81695 7.00423H5.6387L8.4317 0.125806H6.62145" fill="url(#paint0_linear_258_7278)"/>
<defs>
<linearGradient id="paint0_linear_258_7278" x1="10.1398" y1="7.25398" x2="10.3523" y2="-0.048859" gradientUnits="userSpaceOnUse">
<stop stop-color="#222357"/>
<stop offset="1" stop-color="#254AA5"/>
</linearGradient>
</defs>
</svg>
